<svg id="Слой_1" data-name="Слой 1" xmlns="http://www.w3.org/2000/svg" xmlns:xlink="http://www.w3.org/1999/xlink" viewBox="0 0 262.4 62.3"><defs><style>.cls-1,.cls-4{fill:#201600;}.cls-2{fill:url(#Безымянный_градиент);}.cls-3{fill:#fff;}.cls-4{opacity:0.5;isolation:isolate;}.cls-5{fill:#8efcc6;}.cls-6{fill:none;}</style><linearGradient id="Безымянный_градиент" x1="25.72" y1="25.2" x2="224.79" y2="25.2" gradientTransform="matrix(1, 0, 0, -1, 0, 64)" gradientUnits="userSpaceOnUse"><stop offset="0" stop-color="#463cb9"/><stop offset="1" stop-color="#248ce6"/></linearGradient></defs><path class="cls-1" d="M234,46.4a1.28,1.28,0,0,1-1-.4,1.37,1.37,0,0,1-.4-1.1,1.4,1.4,0,1,1,2.8,0A1.37,1.37,0,0,1,235,46,1.43,1.43,0,0,1,234,46.4Z"/><path class="cls-1" d="M247.7,34.4h-3.1V44.7a1.7,1.7,0,0,1-.4,1.3,1.28,1.28,0,0,1-1,.4,1.16,1.16,0,0,1-1-.4,1.7,1.7,0,0,1-.4-1.3V34.4h-3.1a1.61,1.61,0,0,1-1.1-.3,1.27,1.27,0,0,1-.4-.9,1,1,0,0,1,.4-.9,1.61,1.61,0,0,1,1.1-.3h9.1a1.61,1.61,0,0,1,1.1.3,1.27,1.27,0,0,1,.4.9,1.09,1.09,0,0,1-.4.9A2.13,2.13,0,0,1,247.7,34.4Z"/><path class="cls-1" d="M253,33.7l3.2,9.5,3.2-9.5c.2-.5.3-.8.4-1a1,1,0,0,1,.4-.5,1.08,1.08,0,0,1,.8-.2,1.85,1.85,0,0,1,.7.2,1.21,1.21,0,0,1,.5.5,1.42,1.42,0,0,1,.2.6,1.09,1.09,0,0,1-.1.5c0,.2-.1.3-.1.5s-.1.3-.2.5L258.6,44a3,3,0,0,1-.4,1,5.94,5.94,0,0,1-.4.8l-.6.6a1.64,1.64,0,0,1-1,.2,3,3,0,0,1-1-.2c-.3-.2-.5-.3-.6-.6a2,2,0,0,1-.4-.8,6.89,6.89,0,0,0-.4-1l-3.4-9.2c-.1-.2-.1-.3-.2-.5s-.1-.3-.2-.5-.1-.3-.1-.5a1.22,1.22,0,0,1,.4-.9,1.28,1.28,0,0,1,1-.4,1.05,1.05,0,0,1,1,.4C252.6,32.5,252.8,33,253,33.7Z"/><path class="cls-2" d="M69.7,62.3H29.5a3.37,3.37,0,0,1-3.4-3.4V18.7a3.37,3.37,0,0,1,3.4-3.4H69.7a3.37,3.37,0,0,1,3.4,3.4V58.9A3.31,3.31,0,0,1,69.7,62.3Z"/><path class="cls-2" d="M120.7,62.3H80.5a3.37,3.37,0,0,1-3.4-3.4V18.7a3.37,3.37,0,0,1,3.4-3.4h40.2a3.37,3.37,0,0,1,3.4,3.4V58.9A3.31,3.31,0,0,1,120.7,62.3Z"/><path class="cls-2" d="M171.7,62.3H131.5a3.37,3.37,0,0,1-3.4-3.4V18.7a3.37,3.37,0,0,1,3.4-3.4h40.2a3.37,3.37,0,0,1,3.4,3.4V58.9A3.37,3.37,0,0,1,171.7,62.3Z"/><path class="cls-2" d="M222.7,62.3H182.5a3.37,3.37,0,0,1-3.4-3.4V18.7a3.37,3.37,0,0,1,3.4-3.4h40.2a3.37,3.37,0,0,1,3.4,3.4V58.9A3.37,3.37,0,0,1,222.7,62.3Z"/><path class="cls-3" d="M64.1,27a1.45,1.45,0,0,0-1.9.9l-6,16.5-1.1-2.7a1.46,1.46,0,1,0-2.7,1.1L54.9,49a1.42,1.42,0,0,0,1.4.9h0a1.61,1.61,0,0,0,1.4-1L65,28.8A1.56,1.56,0,0,0,64.1,27Z"/><path class="cls-3" d="M51.2,33.3a1.48,1.48,0,0,0-1.9.8L45.1,44.4l-6-16.5a1.49,1.49,0,1,0-2.8,1L43.6,49A1.41,1.41,0,0,0,45,50h0a1.69,1.69,0,0,0,1.4-.9L52,35.2A1.48,1.48,0,0,0,51.2,33.3Z"/><path class="cls-3" d="M213.9,37.6,198.1,26a1.5,1.5,0,1,0-1.8,2.4l14.2,10.4-11.8,9V36.5a1.5,1.5,0,0,0-3,0V50.8a1.34,1.34,0,0,0,.8,1.3,1.45,1.45,0,0,0,.7.2,1.61,1.61,0,0,0,.9-.3l15.8-12a1.43,1.43,0,0,0,.6-1.2A2,2,0,0,0,213.9,37.6Z"/><path class="cls-3" d="M102,26.9a1.42,1.42,0,0,0-1.4-.9,1.69,1.69,0,0,0-1.4.9L90.7,48a1.46,1.46,0,1,0,2.7,1.1l7.2-17.7L105,42.2h-4.4a1.6,1.6,0,1,0,0,3.2h5.7l1.5,3.6a1.42,1.42,0,0,0,1.4.9,1.27,1.27,0,0,0,.6-.1,1.43,1.43,0,0,0,.8-1.9Z"/><path class="cls-3" d="M152.3,37.3c-4-1.8-4.6-3.2-4.6-4.5,0-1,.8-3,3.7-3a4,4,0,0,1,4.1,3.8,1.5,1.5,0,0,0,3,0,6.93,6.93,0,0,0-7.1-6.8c-4.3,0-6.7,3.1-6.7,5.9,0,3.9,3.4,5.9,6.3,7.2,4,1.8,4.8,3,4.8,4.5,0,2.2-2.1,3.5-4.1,3.5-1.2,0-5.3-.3-5.3-4.7a1.5,1.5,0,0,0-3,0c0,5.2,4.1,7.6,8.2,7.6,3.4,0,7-2.4,7-6.4C158.8,40.6,155.5,38.7,152.3,37.3Z"/><path class="cls-4" d="M26.1,15.3v9.6h47V21.5h4v3.4H80c2.54,0,5.93-1.3,6.5-3.1l2.25-6.5Z"/><path class="cls-5" d="M9.74,0h72.4c3.11,0,5.51,1.8,5.51,3.9a1.36,1.36,0,0,1-.15.8L83.27,18.4c-.56,1.8-2.82,3.1-5.36,3.1H5.5C2.4,21.5,0,19.7,0,17.6a1.44,1.44,0,0,1,.14-.8L4.38,3.1C4.94,1.3,7.2,0,9.74,0Z"/><path class="cls-6" d="M15.7,11.25a1.85,1.85,0,0,0-.7-.2c-.3,0-.6-.1-.9-.1H13l-.7,3.5a.77.77,0,0,1,.3.1h1.3a2.77,2.77,0,0,0,.9-.1,2,2,0,0,0,.8-.4c.2-.2.5-.4.6-.6a1.64,1.64,0,0,0,.2-1,1.45,1.45,0,0,0-.2-.7C16.1,11.55,15.9,11.45,15.7,11.25Z"/><path class="cls-6" d="M17,6.15a2.5,2.5,0,0,0-1.3-.3h-.8c-.3,0-.5,0-.6.1l-.9,3.3h2a2.54,2.54,0,0,0,.7-.2,2.51,2.51,0,0,0,.7-.4c.2-.2.4-.3.5-.6a2,2,0,0,0,.2-.9A1,1,0,0,0,17,6.15Z"/><path class="cls-6" d="M73,13.78a6.27,6.27,0,0,0-.42-1.59,1.85,1.85,0,0,0-1-.84,2.86,2.86,0,0,0-1.26-.2H68.43l-1.08,5.4H73A21.25,21.25,0,0,0,73,13.78Z"/><path class="cls-6" d="M72.75,8.25a2,2,0,0,0,.2-.9,1,1,0,0,0-.5-1,2.5,2.5,0,0,0-1.3-.3h-.8c-.3,0-.5,0-.6.1l-.9,3.3h2a2.54,2.54,0,0,0,.7-.2,2.51,2.51,0,0,0,.7-.4C72.45,8.65,72.65,8.55,72.75,8.25Z"/><polygon class="cls-1" points="33.6 6.25 37 6.25 34.8 16.45 37.1 16.45 39.3 6.25 42.7 6.25 43.1 4.05 34 4.05 33.6 6.25"/><polygon class="cls-1" points="45.6 6.25 49 6.25 46.8 16.45 49.1 16.45 51.3 6.25 54.7 6.25 55.1 4.05 46 4.05 45.6 6.25"/><polygon class="cls-1" points="55.5 16.55 62.5 16.55 62.9 14.35 58.2 14.35 58.9 11.35 63.1 11.35 63.6 9.15 59.3 9.15 59.9 6.25 64.5 6.25 65 4.05 58 4.05 55.5 16.55"/><polygon class="cls-1" points="21.6 16.55 28.6 16.55 29 14.35 24.3 14.35 25 11.35 29.2 11.35 29.7 9.15 25.4 9.15 26 6.25 30.6 6.25 31.1 4.05 24.1 4.05 21.6 16.55"/><path class="cls-1" d="M73.54,9.85a2.18,2.18,0,0,0,.9-.7,2.07,2.07,0,0,0,.6-1,3.59,3.59,0,0,0,.2-1.1,2.77,2.77,0,0,0-.3-1.3,2.36,2.36,0,0,0-.8-.9,3.34,3.34,0,0,0-1.2-.5,7.72,7.72,0,0,0-1.5-.2h-1a3.75,3.75,0,0,1-1,.1,2.77,2.77,0,0,0-.9.1c-.3,0-.6.1-.8.1l-2.4,12.1h2l1.08-5.4h1.85a3.19,3.19,0,0,1,1.1.14c.41.13.49.48.81,1a5.77,5.77,0,0,1,.41,1.58,20.78,20.78,0,0,1,0,2.7h2a32.93,32.93,0,0,0-.15-3.76,4.75,4.75,0,0,0-.27-.94,1.61,1.61,0,0,0-.4-.7,2.65,2.65,0,0,0-.6-.5,1.33,1.33,0,0,0-.7-.3v-.1A2.1,2.1,0,0,0,73.54,9.85Zm-1.29-1a2.51,2.51,0,0,1-.7.4,2.54,2.54,0,0,1-.7.2h-2l.9-3.3c.1-.1.3-.1.6-.1h.8a2.5,2.5,0,0,1,1.3.3,1,1,0,0,1,.5,1,2,2,0,0,1-.2.9C72.65,8.55,72.45,8.65,72.25,8.85Z"/><path class="cls-1" d="M18.7,4.55a3.34,3.34,0,0,0-1.2-.5,7.72,7.72,0,0,0-1.5-.2H15A3.75,3.75,0,0,1,14,4a2.77,2.77,0,0,0-.9.1c-.3,0-.6.1-.8.1L9.9,16.25a2.39,2.39,0,0,0,.9.2,3.4,3.4,0,0,0,1,.1h1.7a7.49,7.49,0,0,0,2.1-.2,5.09,5.09,0,0,0,1.7-.7,3.74,3.74,0,0,0,1.2-1.3,3.58,3.58,0,0,0,.4-1.9,2.92,2.92,0,0,0-.2-.9,1.61,1.61,0,0,0-.4-.7,2.65,2.65,0,0,0-.6-.5,1.33,1.33,0,0,0-.7-.3V10a2.1,2.1,0,0,0,1.1-.4,2.18,2.18,0,0,0,.9-.7,2.07,2.07,0,0,0,.6-1,3.59,3.59,0,0,0,.2-1.1,2.77,2.77,0,0,0-.3-1.3A2.36,2.36,0,0,0,18.7,4.55Zm-2.5,8.9c-.1.2-.4.4-.6.6a2,2,0,0,1-.8.4,2.77,2.77,0,0,1-.9.1H12.6a.77.77,0,0,0-.3-.1L13,11h1.1c.3,0,.6.1.9.1a1.85,1.85,0,0,1,.7.2c.2.2.4.3.5.5a1.45,1.45,0,0,1,.2.7A1.64,1.64,0,0,1,16.2,13.45Zm1.1-5.4c-.1.3-.3.4-.5.6a2.51,2.51,0,0,1-.7.4,2.54,2.54,0,0,1-.7.2h-2L14.3,6c.1-.1.3-.1.6-.1h.8a2.5,2.5,0,0,1,1.3.3,1,1,0,0,1,.5,1A2,2,0,0,1,17.3,8.05Z"/><line x1="83.98" y1="16.55" x2="84.04" y2="16.22"/><line x1="74.61" y1="16.22" x2="74.54" y2="16.55"/></svg>